# This file uses centimeters as units for non-parametric coordinates.

mtllib bullet.mtl
g default
v -2.553555 -0.039466 0.069626
v -2.553677 -0.040073 -0.069408
v -2.817616 -0.040073 -0.000000
v -2.553555 0.040565 0.068991
v -2.817616 0.040073 -0.000000
v -2.553677 -0.080145 0.000000
v -2.553433 -0.079916 0.001269
v -2.553433 -0.041057 -0.068575
v -2.553555 0.039466 -0.069626
v -2.553555 0.080031 -0.000634
v -0.860057 0.000000 0.000000
vt 0.500000 0.333333
vt 0.500000 0.666667
vt 0.750000 0.333333
vt 0.750000 0.666667
vt 1.000000 0.333333
vt 1.000000 0.666667
vt 0.625000 0.000000
vt 0.875000 0.000000
vt 0.625000 1.000000
vt 0.875000 1.000000
vt 0.250000 0.500000
vt 0.333333 0.500000
vt 0.500000 1.000000
vt 0.416667 0.500000
vt 0.500000 0.500000
vt 0.583333 0.500000
vt 0.666667 0.500000
vt 0.750000 0.500000
vn -0.254322 -0.002258 -0.967117
vn -0.254845 -0.000405 -0.966982
vn -0.254439 -0.001845 -0.967087
vn -0.254959 0.000000 -0.966952
vn -0.254959 0.000000 0.966952
vn -0.253187 0.006274 0.967397
vn -0.254568 0.001389 0.967054
vn -0.252791 0.007671 0.967491
vn -0.130362 -0.858636 -0.495733
vn -0.130362 -0.858636 -0.495733
vn -0.130362 -0.858635 -0.495733
vn -0.129964 -0.856009 0.500359
vn -0.129964 -0.856009 0.500359
vn -0.129964 -0.856009 0.500359
vn -0.130535 0.854659 -0.502513
vn -0.130535 0.854659 -0.502513
vn -0.130535 0.854659 -0.502513
vn -0.129362 0.862652 0.488976
vn -0.129362 0.862652 0.488976
vn -0.129362 0.862652 0.488976
vn 0.040961 -0.859856 0.508891
vn 0.040961 -0.859856 0.508891
vn 0.040961 -0.859856 0.508891
vn 0.040842 -0.873125 -0.485782
vn 0.040842 -0.873125 -0.485782
vn 0.040842 -0.873125 -0.485782
vn 0.040773 -0.012979 -0.999084
vn 0.040773 -0.012979 -0.999084
vn 0.040773 -0.012979 -0.999084
vn 0.040893 0.861313 -0.506426
vn 0.040893 0.861313 -0.506426
vn 0.040893 0.861314 -0.506426
vn 0.040893 0.869234 0.492707
vn 0.040893 0.869234 0.492707
vn 0.040893 0.869234 0.492707
vn 0.040893 0.007921 0.999132
vn 0.040893 0.007921 0.999132
vn 0.040893 0.007921 0.999132
s 1
g polySurface3
usemtl initialShadingGroup
f 2/1/1 3/3/2 9/2/3
f 9/2/3 3/3/2 5/4/4
s 2
f 3/3/5 1/5/6 5/4/7
f 5/4/7 1/5/6 4/6/8
s off
f 3/3/9 2/1/10 6/7/11
f 1/5/12 3/3/13 6/8/14
f 9/2/15 5/4/16 10/9/17
f 5/4/18 4/6/19 10/10/20
f 1/11/21 7/12/22 11/13/23
f 7/12/24 8/14/25 11/13/26
f 8/14/27 9/15/28 11/13/29
f 9/15/30 10/16/31 11/13/32
f 10/16/33 4/17/34 11/13/35
f 4/17/36 1/18/37 11/13/38
g default
v -0.860057 0.000000 0.000000
v -0.860057 0.000000 0.000000
v -0.860057 0.000000 0.000000
v -0.860057 0.000000 0.000000
v -0.860057 0.000000 0.000000
v -0.860057 0.000000 0.000000
v -0.860057 0.000000 0.000000
v -0.860057 0.000000 0.000000
v -0.860057 0.000000 0.000000
v -0.860057 0.000000 0.000000
vt 0.000000 0.333333
vt 0.000000 0.666667
vt 0.250000 0.666667
vt 0.250000 0.333333
vt 0.500000 0.666667
vt 0.500000 0.333333
vt 0.750000 0.666667
vt 0.750000 0.333333
vt 1.000000 0.666667
vt 1.000000 0.333333
vt 0.125000 0.000000
vt 0.375000 0.000000
vt 0.625000 0.000000
vt 0.875000 0.000000
vt 0.125000 1.000000
vt 0.375000 1.000000
vt 0.625000 1.000000
vt 0.875000 1.000000
vn 0.000000 0.000000 0.000000
vn 0.000000 0.000000 0.000000
vn 0.000000 0.000000 0.000000
vn 0.000000 0.000000 0.000000
vn 0.000000 0.000000 0.000000
vn 0.000000 0.000000 0.000000
vn 0.000000 0.000000 0.000000
vn 0.000000 0.000000 0.000000
vn 0.000000 0.000000 0.000000
vn 0.000000 0.000000 0.000000
vn 0.000000 0.000000 0.000000
vn 0.000000 0.000000 0.000000
vn 0.000000 0.000000 0.000000
vn 0.000000 0.000000 0.000000
vn 0.000000 0.000000 0.000000
vn 0.000000 0.000000 0.000000
vn 0.000000 0.000000 0.000000
vn 0.000000 0.000000 0.000000
vn 0.000000 0.000000 0.000000
vn 0.000000 0.000000 0.000000
vn 0.000000 0.000000 0.000000
vn 0.000000 0.000000 0.000000
vn 0.000000 0.000000 0.000000
vn 0.000000 0.000000 0.000000
vn 0.000000 0.000000 0.000000
vn 0.000000 0.000000 0.000000
vn 0.000000 0.000000 0.000000
vn 0.000000 0.000000 0.000000
vn 0.000000 0.000000 0.000000
vn 0.000000 0.000000 0.000000
vn 0.000000 0.000000 0.000000
vn 0.000000 0.000000 0.000000
vn 0.000000 0.000000 0.000000
vn 0.000000 0.000000 0.000000
vn 0.000000 0.000000 0.000000
vn 0.000000 0.000000 0.000000
vn 0.000000 0.000000 0.000000
vn 0.000000 0.000000 0.000000
vn 0.000000 0.000000 0.000000
vn 0.000000 0.000000 0.000000
s off
g polySurface5 polySurface1
usemtl initialShadingGroup
f 12/19/39 15/20/40 14/21/41 13/22/42
f 13/22/43 14/21/44 17/23/45 16/24/46
f 16/24/47 17/23/48 19/25/49 18/26/50
f 18/26/51 19/25/52 15/27/53 12/28/54
f 13/22/55 20/29/56 12/19/57
f 16/24/58 20/30/59 13/22/60
f 18/26/61 20/31/62 16/24/63
f 12/28/64 20/32/65 18/26/66
f 15/20/67 21/33/68 14/21/69
f 14/21/70 21/34/71 17/23/72
f 17/23/73 21/35/74 19/25/75
f 19/25/76 21/36/77 15/27/78
g default
v -0.860057 0.000000 0.000000
v -0.860057 0.000000 0.000000
v -0.860057 0.000000 0.000000
v -0.860057 0.000000 0.000000
v -0.860057 0.000000 0.000000
v -0.860057 0.000000 0.000000
v -0.860057 0.000000 0.000000
vt 0.625000 0.033494
vt 0.375000 0.033494
vt 0.250000 0.250000
vt 0.375000 0.466506
vt 0.625000 0.466506
vt 0.750000 0.250000
vt 0.250000 0.500000
vt 0.500000 1.000000
vt 0.333333 0.500000
vt 0.416667 0.500000
vt 0.500000 0.500000
vt 0.583333 0.500000
vt 0.666667 0.500000
vt 0.750000 0.500000
vn 0.000000 0.000000 0.000000
vn 0.000000 0.000000 0.000000
vn 0.000000 0.000000 0.000000
vn 0.000000 0.000000 0.000000
vn 0.000000 0.000000 0.000000
vn 0.000000 0.000000 0.000000
vn 0.000000 0.000000 0.000000
vn 0.000000 0.000000 0.000000
vn 0.000000 0.000000 0.000000
vn 0.000000 0.000000 0.000000
vn 0.000000 0.000000 0.000000
vn 0.000000 0.000000 0.000000
vn 0.000000 0.000000 0.000000
vn 0.000000 0.000000 0.000000
vn 0.000000 0.000000 0.000000
vn 0.000000 0.000000 0.000000
vn 0.000000 0.000000 0.000000
vn 0.000000 0.000000 0.000000
vn 0.000000 0.000000 0.000000
vn 0.000000 0.000000 0.000000
vn 0.000000 0.000000 0.000000
vn 0.000000 0.000000 0.000000
vn 0.000000 0.000000 0.000000
vn 0.000000 0.000000 0.000000
s off
g polySurface1 polySurface6
usemtl initialShadingGroup
f 22/37/79 27/38/80 26/39/81 25/40/82 24/41/83 23/42/84
f 22/43/85 28/44/86 27/45/87
f 27/45/88 28/44/89 26/46/90
f 26/46/91 28/44/92 25/47/93
f 25/47/94 28/44/95 24/48/96
f 24/48/97 28/44/98 23/49/99
f 23/49/100 28/44/101 22/50/102
